<svg width="109" height="120" viewBox="0 0 109 120" fill="none" xmlns="http://www.w3.org/2000/svg">
<path d="M7.5 90.5L52.5 11L105 92.5H73.5V114.5H34.5V90.5H7.5Z" fill="white" stroke="black"/>
<path d="M50.6274 3.89322C51.8601 1.74306 54.5964 1.00988 56.739 2.25564V2.25564C58.8816 3.50139 59.6193 6.25433 58.3865 8.40449L9.99121 92.8174C8.75849 94.9676 6.02222 95.7008 3.87958 94.455V94.455C1.73695 93.2093 0.999317 90.4563 2.23204 88.3062L50.6274 3.89322Z" fill="white"/>
<path d="M72.26 110.075C73.9168 110.075 75.26 111.418 75.26 113.075L75.26 117C75.26 118.657 73.9168 120 72.26 120L37.0462 120C35.3893 120 34.0462 118.657 34.0462 117L34.0462 113.075C34.0462 111.418 35.3893 110.075 37.0462 110.075L72.26 110.075Z" fill="white"/>
<path d="M39.4219 117C39.4219 118.657 38.0787 120 36.4219 120L32.5664 120C30.9096 120 29.5664 118.657 29.5664 117L29.5664 90.5188C29.5664 88.8619 30.9096 87.5188 32.5664 87.5188L36.4219 87.5188C38.0787 87.5188 39.4219 88.8619 39.4219 90.5188L39.4219 117Z" fill="white"/>
<path d="M4.7919 97.4436C3.13505 97.4436 1.7919 96.1005 1.7919 94.4436L1.7919 90.5188C1.7919 88.8619 3.13505 87.5188 4.7919 87.5188L31.0462 87.5188C32.703 87.5188 34.0462 88.8619 34.0462 90.5188L34.0462 94.4436C34.0462 96.1005 32.703 97.4436 31.0462 97.4436L4.7919 97.4436Z" fill="white"/>
<path d="M58.3726 3.89322C57.1399 1.74306 54.4036 1.00988 52.261 2.25564V2.25564C50.1184 3.50139 49.3807 6.25433 50.6135 8.40449L99.0088 92.8174C100.242 94.9676 102.978 95.7008 105.12 94.455V94.455C107.263 93.2093 108.001 90.4563 106.768 88.3062L58.3726 3.89322Z" fill="white"/>
<path d="M69.5781 117C69.5781 118.657 70.9213 120 72.5781 120L76.4336 120C78.0905 120 79.4336 118.657 79.4336 117L79.4336 90.5188C79.4336 88.8619 78.0905 87.5188 76.4336 87.5188L72.5781 87.5188C70.9213 87.5188 69.5781 88.8619 69.5781 90.5188L69.5781 117Z" fill="white"/>
<path d="M104.208 97.4436C105.865 97.4436 107.208 96.1005 107.208 94.4436L107.208 90.5188C107.208 88.8619 105.865 87.5188 104.208 87.5188L77.9538 87.5188C76.297 87.5188 74.9538 88.8619 74.9538 90.5188L74.9538 94.4436C74.9538 96.1005 76.297 97.4436 77.9538 97.4436L104.208 97.4436Z" fill="white"/>
</svg>
